<svg width="20" height="21" viewBox="0 0 20 21" fill="none" xmlns="http://www.w3.org/2000/svg">
<path d="M13.0863 0.859619H5.9483C2.66372 0.859619 0 3.60681 0 6.99432V14.356C0 17.7435 2.66372 20.4907 5.9483 20.4907H13.0863C16.3708 20.4907 19.0346 17.7435 19.0346 14.356V6.99432C19.0346 3.60681 16.3708 0.859619 13.0863 0.859619ZM17.2501 14.356C17.2501 16.724 15.3823 18.6502 13.0863 18.6502H5.9483C3.65226 18.6502 1.78449 16.724 1.78449 14.356V6.99432C1.78449 4.62632 3.65226 2.70003 5.9483 2.70003H13.0863C15.3823 2.70003 17.2501 4.62632 17.2501 6.99432V14.356Z" fill="white"/>
<path d="M9.51646 5.76733C6.88842 5.76733 4.75781 7.96471 4.75781 10.6751C4.75781 13.3855 6.88842 15.5829 9.51646 15.5829C12.1445 15.5829 14.2751 13.3855 14.2751 10.6751C14.2751 7.96471 12.1445 5.76733 9.51646 5.76733ZM9.51646 13.7424C7.87695 13.7424 6.5423 12.366 6.5423 10.6751C6.5423 8.98307 7.87695 7.60774 9.51646 7.60774C11.156 7.60774 12.4906 8.98307 12.4906 10.6751C12.4906 12.366 11.156 13.7424 9.51646 13.7424Z" fill="white"/>
<path d="M14.7532 5.76744C15.016 5.76744 15.2291 5.54772 15.2291 5.27667C15.2291 5.00562 15.016 4.78589 14.7532 4.78589C14.4904 4.78589 14.2773 5.00562 14.2773 5.27667C14.2773 5.54772 14.4904 5.76744 14.7532 5.76744Z" fill="white"/>
</svg>
