<svg width="19" height="20" viewBox="0 0 19 20" fill="none" xmlns="http://www.w3.org/2000/svg">
<rect x="1" y="1.85962" width="17" height="17" rx="4" stroke="white" stroke-width="2"/>
<path fill-rule="evenodd" clip-rule="evenodd" d="M5.26172 6.44004C5.26172 5.84344 5.74603 5.35913 6.34263 5.35913C6.939 5.35913 7.42331 5.84344 7.42354 6.44004C7.42354 7.03664 6.93923 7.53104 6.34263 7.53104C5.74603 7.53104 5.26172 7.03664 5.26172 6.44004ZM14.2598 14.3615V14.361H14.2622V11.0597C14.2622 9.44474 13.9145 8.20044 12.0263 8.20044C11.1186 8.20044 10.5096 8.69858 10.2609 9.17071H10.2346V8.35117H8.44434V14.361H10.3084V11.3853C10.3084 10.6018 10.4571 9.84419 11.4273 9.84419C12.3835 9.84419 12.3976 10.7383 12.3976 11.4357V14.3615H14.2598ZM7.27563 8.35083H5.40918V14.3607H7.27563V8.35083Z" fill="white"/>
</svg>
