<svg width="211" height="32" viewBox="0 0 211 32" fill="none" xmlns="http://www.w3.org/2000/svg">
<g clip-path="url(#clip0_6302_17)">
<path d="M15.825 0.349949C24.5465 0.349949 31.65 7.42195 31.65 16.1739C31.65 24.9259 24.5465 31.9975 15.825 31.9975C7.10353 31.9975 0 24.9965 0 16.1744C0 7.3522 7.10353 0.349949 15.825 0.349949ZM139.893 0V27.7268C139.893 29.8273 140.737 30.3873 142.355 30.8078L142.425 31.1577H133.493V27.7268C132.438 30.2474 130.257 31.7879 127.444 31.7879C122.661 31.7879 119.496 27.4466 119.496 21.0051C119.496 17.3641 120.551 14.2835 122.521 11.9729C124.42 9.73251 127.022 8.54195 129.906 8.54195C131.312 8.54195 132.508 8.82215 133.493 9.45231V5.67138C133.493 4.83118 133.282 4.27118 132.86 3.85108C132.297 3.36082 131.383 3.15077 129.976 3.29067H129.906V2.94072L139.893 0ZM173.794 8.6121V27.7268C173.794 29.8273 174.638 30.3873 176.255 30.8078V31.1577H167.323V27.6566C166.268 30.1772 163.947 31.7879 161.345 31.7879C158.25 31.7879 156.281 30.3873 155.507 27.6566L155.366 26.9567C155.227 26.2652 155.156 25.5616 155.155 24.8562V14.6334C155.155 12.393 154.663 11.6927 152.694 11.5528H152.623V11.2029L161.556 8.6121V24.7159C161.556 27.0966 162.611 28.4271 164.58 28.4271C165.776 28.4271 166.76 27.7969 167.323 26.7467V14.6334C167.323 12.3229 166.901 11.623 165.283 11.4827H165.213V11.1327L173.794 8.6121ZM109.298 8.54236C111.689 8.54236 114.01 9.38215 115.558 10.8525C117.316 12.5332 118.23 14.9838 118.301 18.2043V18.2745H104.867C104.586 22.8956 107.469 26.6765 111.267 26.8164C114.01 27.0265 116.402 25.3461 117.738 22.6154L118.09 22.7557C117.316 27.8667 114.292 31.7177 109.017 31.7177C103.038 31.7177 99.6625 26.7467 99.5215 20.5149V18.9046C99.803 16.174 100.647 13.7231 102.124 11.9028C103.038 10.7828 104.093 9.94256 105.359 9.38215C106.414 8.82215 107.962 8.54195 109.228 8.54195L109.298 8.54236ZM202.349 8.6121C206.147 8.6121 208.468 10.9928 208.468 15.0535V28.0767C208.468 29.6172 209.171 30.3873 210.93 30.8074H211V31.1577H201.997V15.2636C201.997 12.743 201.083 11.4827 199.184 11.4827C197.637 11.4827 196.863 12.6031 196.441 13.5832C196.511 14.0734 196.582 14.5637 196.582 15.0535V28.2872C196.582 29.8978 197.074 30.4578 198.481 30.8078H198.551V31.1582H190.181V15.2636C190.181 12.743 189.197 11.4827 187.368 11.4827C185.891 11.4827 185.117 12.5329 184.766 13.3731V28.3569C184.766 29.9672 185.258 30.5272 186.665 30.8775H186.735V31.2275H178.365V14.5641C178.365 12.3233 177.803 11.6234 175.904 11.4831H175.833V11.1331L184.766 8.68267V12.3934C185.68 10.0127 187.79 8.61251 190.463 8.61251C193.487 8.61251 195.597 10.0829 196.3 12.7438C197.215 10.2228 199.536 8.6121 202.349 8.6121ZM74.061 1.40021L82.4309 20.935L90.8001 1.40021H99.8026L99.7325 1.75056L99.6299 1.77313C98.0791 2.12513 97.2706 2.70236 97.2706 4.62113V28.4271C97.4111 29.9672 98.2555 30.4574 99.7321 30.8074H99.8026V31.1577H88.3381V30.8074H88.4086C89.8856 30.4574 90.7296 29.9672 90.8701 28.4271V5.25128L79.8281 31.0876H79.1951L68.4341 5.95118V27.8671C68.4341 29.8273 69.2781 30.3873 70.8956 30.7376H70.9657V31.0876H64.355V30.7376H64.4251C66.043 30.3873 66.887 29.8273 66.887 27.8667V4.62113C66.887 2.66051 66.043 2.10051 64.4255 1.75056H64.355V1.40021H74.061ZM150.795 8.6121V27.7268L150.796 27.856C150.83 29.8507 151.672 30.3963 153.256 30.8074L153.327 31.1577H144.395V14.6334C144.395 12.393 143.902 11.6927 141.933 11.5528H141.863V11.2029L150.795 8.6121ZM41.145 1.26031C45.4351 1.26031 49.0225 7.98195 49.0225 16.1739C49.0225 24.4361 45.5055 31.0876 41.145 31.0876C36.7845 31.0876 33.2675 24.4361 33.2675 16.1739C33.2675 7.91179 36.7849 1.26031 41.145 1.26031ZM53.2425 2.80082C54.86 2.80082 56.0555 8.82215 56.0555 16.1739C56.0555 23.5257 54.7895 29.5471 53.2425 29.5471C51.7107 29.5471 50.4546 23.6455 50.4294 16.3943L50.429 16.1739C50.429 8.82215 51.695 2.80082 53.2425 2.80082ZM130.96 9.80226C128.147 9.80226 126.389 13.5134 126.389 19.2546C126.389 21.9852 126.881 24.3659 127.725 25.9762C128.499 27.5167 129.624 28.3569 130.89 28.3569C132.156 28.3569 133.07 27.7969 133.492 26.7467V11.3428C133 10.3623 132.086 9.80226 130.96 9.80226ZM109.227 9.87241C106.695 9.87241 105.218 12.8833 105.007 17.0843V17.1541H112.674C112.814 13.8634 112.252 11.6927 111.197 10.6425C110.634 10.1526 110.001 9.87241 109.227 9.87241ZM147.348 0.210051C149.388 0.210051 150.935 1.75056 150.935 3.78092C150.935 5.81128 149.388 7.35179 147.348 7.35179C145.309 7.35179 143.761 5.81128 143.761 3.78092C143.761 1.75056 145.309 0.210051 147.348 0.210051Z" fill="white"/>
</g>
<defs>
<clipPath id="clip0_6302_17">
<rect width="211" height="32" fill="white"/>
</clipPath>
</defs>
</svg>
