<svg width="18" height="19" viewBox="0 0 18 19" fill="none" xmlns="http://www.w3.org/2000/svg">
<path d="M0.703125 10.5471C0.234375 10.5471 0 10.3648 0 10.0002V9.21899C0 8.85441 0.234375 8.67212 0.703125 8.67212H7.79688V1.56274C7.79688 1.09399 7.97917 0.859619 8.34375 0.859619H9.125C9.48958 0.859619 9.67188 1.09399 9.67188 1.56274V8.67212H16.7969C17.2656 8.67212 17.5 8.85441 17.5 9.21899V10.0002C17.5 10.3648 17.2656 10.5471 16.7969 10.5471H9.67188V17.6565C9.67188 18.1252 9.48958 18.3596 9.125 18.3596H8.34375C7.97917 18.3596 7.79688 18.1252 7.79688 17.6565V10.5471H0.703125Z" fill="white"/>
</svg>
