<svg width="23" height="18" viewBox="0 0 23 18" fill="none" xmlns="http://www.w3.org/2000/svg">
<path d="M22.4453 2.87224C21.6272 3.21347 20.7553 3.43986 19.8465 3.54979C20.7815 3.01895 21.4953 2.18447 21.8308 1.17878C20.959 1.67325 19.9965 2.02224 18.9708 2.21717C18.1428 1.37861 16.9633 0.859619 15.6759 0.859619C13.1789 0.859619 11.1684 2.78724 11.1684 5.15008C11.1684 5.49008 11.1985 5.817 11.2728 6.12839C7.52369 5.95431 4.20558 4.24532 1.97675 1.64178C1.58744 2.28378 1.35928 3.01895 1.35928 3.8101C1.35928 5.29556 2.16367 6.61265 3.36252 7.37479C2.63805 7.36171 1.9269 7.16147 1.3249 6.8464C1.3249 6.85947 1.3249 6.87664 1.3249 6.89339C1.3249 8.97794 2.88813 10.7094 4.93864 11.1082C4.57168 11.2039 4.17121 11.2496 3.75612 11.2496C3.46736 11.2496 3.17603 11.2341 2.90231 11.1765C3.4867 12.8753 5.1449 14.1241 7.11677 14.1646C5.58233 15.3063 3.63366 15.9941 1.52471 15.9941C1.15474 15.9941 0.800241 15.9786 0.445312 15.9353C2.44297 17.16 4.81059 17.8596 7.36385 17.8596C15.6634 17.8596 20.201 11.3212 20.201 5.65354C20.201 5.46392 20.1941 5.28085 20.1847 5.09899C21.0797 4.495 21.8321 3.74063 22.4453 2.87224Z" fill="white"/>
</svg>
