<svg width="20" height="15" viewBox="0 0 20 15" fill="none" xmlns="http://www.w3.org/2000/svg">
<path d="M9.73855 14.8847H9.73323C9.14757 14.8806 3.97043 14.8335 2.50362 14.4369C1.47852 14.1616 0.66953 13.353 0.393031 12.3279C0.00904664 10.8869 0.033734 8.11278 0.0363927 7.89136C0.033734 7.67107 0.00904664 4.87379 0.391891 3.42103L0.393031 3.41686C0.666492 2.40353 1.49371 1.56986 2.50134 1.29374C2.50361 1.29298 2.50627 1.29222 2.50893 1.29184C3.95903 0.910133 9.14681 0.863797 9.73361 0.859619H9.74424C10.3314 0.863797 15.5222 0.910893 16.9758 1.30817C17.9982 1.58277 18.8068 2.39024 19.0837 3.4142C19.4817 4.8681 19.4449 7.67107 19.4411 7.90769C19.4437 8.14089 19.4673 10.8899 19.0856 12.3381L19.0844 12.3423C18.8079 13.3674 17.999 14.1756 16.9727 14.4517L16.9685 14.4529C15.5184 14.8338 10.3307 14.8806 9.74424 14.8847H9.73855ZM1.85756 3.80958C1.5203 5.0918 1.5522 7.85337 1.55258 7.8811V7.90123C1.5427 8.66692 1.57803 10.885 1.85756 11.9352C1.99316 12.438 2.39233 12.8364 2.89823 12.9728C3.98068 13.2656 8.19691 13.3575 9.73817 13.3685C11.2832 13.3575 15.5063 13.2683 16.5804 12.9872C17.0848 12.8509 17.4824 12.4536 17.6192 11.95C17.8994 10.8842 17.9344 8.67717 17.9241 7.91604C17.9241 7.90807 17.9241 7.90009 17.9241 7.89211C17.9382 7.11693 17.9105 4.87341 17.6203 3.81451L17.6195 3.81147C17.4832 3.30633 17.084 2.90792 16.5781 2.77156C15.5063 2.47873 11.2828 2.38682 9.73817 2.37581C8.19387 2.38682 3.97536 2.47608 2.89785 2.75675C2.40183 2.89462 1.99353 3.30747 1.85756 3.80958ZM7.80609 10.9423V4.80163L13.1131 7.87198L7.80609 10.9423Z" fill="white"/>
</svg>
